<svg class="svg" width="8" height="8" viewBox="0 0 8 8" fill="none" xmlns="http://www.w3.org/2000/svg">
  <path d="M6.8 3C6.91046 3 7 3.08954 7 3.2L7 4.8C7 4.91046 6.91046 5 6.8 5L5.2 5C5.08954 5 5 5.08954 5 5.2L5 6.8C5 6.91046 4.91046 7 4.8 7L3.2 7C3.08954 7 3 6.91046 3 6.8L3 5.2C3 5.08954 2.91046 5 2.8 5L1.2 5C1.08954 5 1 4.91046 1 4.8L1 3.2C1 3.08954 1.08954 3 1.2 3L2.8 3C2.91046 3 3 2.91046 3 2.8L3 1.2C3 1.08954 3.08954 1 3.2 1L4.8 1C4.91046 1 5 1.08954 5 1.2L5 2.8C5 2.91046 5.08954 3 5.2 3L6.8 3Z" fill="#000" />
</svg>
