<svg width="8" height="8" viewBox="0 0 8 8" fill="none" xmlns="http://www.w3.org/2000/svg">
<path d="M5.27279 1.31296C5.3509 1.23485 5.47753 1.23485 5.55563 1.31296L6.68701 2.44433C6.76511 2.52243 6.76511 2.64907 6.68701 2.72717L5.55563 3.85854C5.47753 3.93665 5.47753 4.06328 5.55563 4.14139L6.68701 5.27276C6.76511 5.35086 6.76511 5.47749 6.68701 5.5556L5.55563 6.68697C5.47753 6.76508 5.3509 6.76508 5.27279 6.68697L4.14142 5.5556C4.06332 5.47749 3.93668 5.47749 3.85858 5.5556L2.72721 6.68697C2.6491 6.76508 2.52247 6.76508 2.44437 6.68697L1.31299 5.5556C1.23489 5.47749 1.23489 5.35086 1.31299 5.27276L2.44437 4.14139C2.52247 4.06328 2.52247 3.93665 2.44437 3.85854L1.31299 2.72717C1.23489 2.64907 1.23489 2.52243 1.31299 2.44433L2.44437 1.31296C2.52247 1.23485 2.6491 1.23485 2.72721 1.31296L3.85858 2.44433C3.93668 2.52243 4.06332 2.52243 4.14142 2.44433L5.27279 1.31296Z" fill="#000"/>
</svg>
