<svg width="218" height="218" viewBox="0 0 218 218" fill="none" xmlns="http://www.w3.org/2000/svg">
<path d="M67.5 130.3L75 137C75 140 76.4 142.9 78.8 145.1L91.7 156.5L100 163.8L99.9 170.6L107.7 164.6V172.4L116.6 164.9L91.7 142.9L92.9 141.7L119.3 165.1V173L128.6 165L108 146.8V137C103.2 132.8 96.7 130.4 89.9 130.4H67.5V130.3Z" fill="#262D51"/>
<path d="M95.2 139.5L122 164.8V173L131 164.7L111 145.8V135.7L120.2 144.4L144.5 144.5L159.3 158.4V143.6C159.3 138.6 157.2 133.8 153.4 130.2L111.2 90.4L68.8 50.4C65.1 46.9 60.2 45 55.1 45C50 45 45 46.9 41.4 50.3L15 75.2H30.8C35.1 71.1 42.1 71.1 46.4 75.2L46.6 75.4L78.9 105.8H63L46.6 90.4V97.4C46.6 102.4 48.7 107.2 52.5 110.8L63.2 120.9L79 135.8C79 138.9 80.3 141.9 82.7 144.2L95.2 156L103.2 163.6L103.1 170.6L110.7 164.4V172.5L119.4 164.7L95.2 141.8" fill="#262D51"/>
<path d="M111.2 90.3L151.7 50.3C155.2 46.9 159.9 45 164.8 45C169.7 45 174.4 46.9 177.9 50.3L203 75.2H187.9C183.8 71.2 177.2 71.2 173.1 75.2L172.9 75.4L134.5 113.3" fill="#262D51"/>
</svg>
