<svg width="270" height="185" viewBox="0 0 270 185" fill="none" xmlns="http://www.w3.org/2000/svg">
<path d="M82.1644 120.086L91.596 128.594C91.596 132.461 93.3832 136.199 96.447 139.035L112.915 153.73L123.511 163.141L123.383 171.906L127.483 168.722L127.468 171.906L133.341 167.068V174.227L137.17 170.968V174.355L147.92 164.623L148.1 164.8L148.149 175L151.596 172.006V175L163.085 164.3L137.553 139.937V126.918L149.298 138.132L180.319 138.261L199.213 156.179V137.101C199.213 130.656 196.532 124.468 191.681 119.828L168.239 97.4996L216.574 49.1871L216.829 48.9293C222.064 43.773 230.489 43.773 235.723 48.9293H255L222.957 16.8316C218.489 12.4488 212.489 9.9996 206.234 9.9996C199.978 9.9996 193.978 12.4488 189.51 16.8316L137.681 68.3941L83.6808 16.9605C78.9574 12.4488 72.7021 9.9996 66.1915 9.9996C59.6808 9.9996 53.2979 12.4488 48.7021 16.8316L15 48.9293H35.1702C40.6596 43.6441 49.5957 43.6441 55.0851 48.9293L55.3404 49.1871L96.5745 88.3746H76.2766L55.3404 68.523V77.5465C55.3404 83.9918 58.0213 90.1793 62.8723 94.8199L89.3953 120.086H85.7084H82.1644Z" fill="#141414"/>
</svg>
